<svg width="33" height="32" viewBox="0 0 33 32" fill="none" xmlns="http://www.w3.org/2000/svg">
    <path d="M13.1908 14.6281C12.4455 14.6281 11.8584 15.2614 11.8584 16.0347C11.8584 16.8054 12.4593 17.4414 13.1908 17.4414C13.9346 17.4414 14.5218 16.8054 14.5218 16.0347C14.5369 15.2601 13.9346 14.6281 13.1908 14.6281ZM17.9593 14.6281C17.214 14.6281 16.6269 15.2614 16.6269 16.0347C16.6269 16.8054 17.2278 17.4414 17.9593 17.4414C18.7031 17.4414 19.2903 16.8054 19.2903 16.0347C19.2889 15.2601 18.7031 14.6281 17.9593 14.6281Z" fill="white"/>
    <path d="M24.3073 4H6.80213C6.44967 4.00087 6.10083 4.06906 5.77553 4.20067C5.45024 4.33227 5.15486 4.52472 4.90627 4.76701C4.65768 5.00931 4.46073 5.29672 4.32668 5.61283C4.19263 5.92893 4.1241 6.26755 4.12501 6.60933V23.7347C4.12501 25.1787 5.32676 26.344 6.80213 26.344H21.615L20.9206 23.9987L22.594 25.5067L24.1739 26.9253L26.9844 29.3333V6.60933C26.9853 6.26755 26.9168 5.92893 26.7827 5.61283C26.6487 5.29672 26.4517 5.00931 26.2031 4.76701C25.9545 4.52472 25.6592 4.33227 25.3339 4.20067C25.0086 4.06906 24.6597 4.00087 24.3073 4V4ZM19.2638 20.5427C19.2638 20.5427 18.7935 19.9987 18.403 19.5147C20.1135 19.0453 20.7666 18.008 20.7666 18.008C20.2304 18.3493 19.7216 18.592 19.2638 18.7573C17.5968 19.4338 15.7611 19.6184 13.9865 19.288C13.3308 19.1631 12.6882 18.9801 12.067 18.7413C11.7394 18.6206 11.4209 18.4776 11.1141 18.3133C11.0743 18.2853 11.0358 18.2747 10.9973 18.2493C10.9767 18.2398 10.9584 18.2262 10.9436 18.2093C10.7085 18.084 10.5779 17.996 10.5779 17.996C10.5779 17.996 11.2049 19.0093 12.8645 19.4907C12.4726 19.9707 11.9886 20.5427 11.9886 20.5427C9.10251 20.4533 8.00663 18.6173 8.00663 18.6173C8.00663 14.5387 9.88763 11.2333 9.88763 11.2333C11.7686 9.864 13.5575 9.90267 13.5575 9.90267L13.6881 10.0547C11.3369 10.7147 10.252 11.7147 10.252 11.7147C10.252 11.7147 10.5408 11.5627 11.0234 11.348C12.4204 10.7533 13.53 10.588 13.9879 10.5493C14.0663 10.5373 14.1323 10.524 14.2106 10.524C16.4755 10.228 18.7786 10.6454 20.7804 11.7147C20.7804 11.7147 19.7478 10.7653 17.5271 10.1067L17.71 9.904C17.71 9.904 19.5003 9.86533 21.3799 11.2347C21.3799 11.2347 23.2609 14.54 23.2609 18.6187C23.2609 18.6173 22.1513 20.4533 19.2638 20.5427V20.5427Z" fill="white"/>
</svg>
