<svg width="25" height="23" viewBox="0 0 25 23" fill="none" xmlns="http://www.w3.org/2000/svg">
    <path d="M25 6.03125V20.0938C25 21.3877 23.9502 22.4375 22.6562 22.4375H2.34375C1.0498 22.4375 0 21.3877 0 20.0938V6.03125C0 4.7373 1.0498 3.6875 2.34375 3.6875H6.64062L7.24121 2.08105C7.58301 1.16797 8.45703 0.5625 9.43359 0.5625H15.5615C16.5381 0.5625 17.4121 1.16797 17.7539 2.08105L18.3594 3.6875H22.6562C23.9502 3.6875 25 4.7373 25 6.03125ZM18.3594 13.0625C18.3594 9.83008 15.7324 7.20312 12.5 7.20312C9.26758 7.20312 6.64062 9.83008 6.64062 13.0625C6.64062 16.2949 9.26758 18.9219 12.5 18.9219C15.7324 18.9219 18.3594 16.2949 18.3594 13.0625ZM16.7969 13.0625C16.7969 15.4307 14.8682 17.3594 12.5 17.3594C10.1318 17.3594 8.20312 15.4307 8.20312 13.0625C8.20312 10.6943 10.1318 8.76562 12.5 8.76562C14.8682 8.76562 16.7969 10.6943 16.7969 13.0625Z" fill="white" fill-opacity="0.53"/>
</svg>
