<?xml version="1.0" encoding="UTF-8"?>
<!DOCTYPE svg PUBLIC "-//W3C//DTD SVG 1.1//EN" "http://www.w3.org/Graphics/SVG/1.1/DTD/svg11.dtd">
<svg xmlns="http://www.w3.org/2000/svg" xmlns:xlink="http://www.w3.org/1999/xlink">
<symbol id="discord" viewBox="0 0 33 32">
	<path fill="#fff" d="M13.19 14.628c-.745 0-1.332.633-1.332 1.407 0 .77.601 1.406 1.333 1.406.744 0 1.33-.636 1.33-1.406.016-.775-.586-1.407-1.33-1.407zm4.77 0c-.746 0-1.333.633-1.333 1.407 0 .77.6 1.406 1.332 1.406.744 0 1.331-.636 1.331-1.406-.001-.775-.587-1.407-1.33-1.407z"/>
	<path fill="#fff" d="M24.307 4H6.802c-.352 0-.701.07-1.026.2a2.69 2.69 0 00-.87.567c-.248.242-.445.53-.58.846a2.534 2.534 0 00-.201.996v17.126c0 1.444 1.202 2.609 2.677 2.609h14.813l-.694-2.345 1.673 1.508 1.58 1.418 2.81 2.408V6.61c.001-.341-.067-.68-.201-.996a2.598 2.598 0 00-.58-.846 2.69 2.69 0 00-.87-.566A2.757 2.757 0 0024.308 4zm-5.043 16.543s-.47-.544-.861-1.028c1.71-.47 2.364-1.507 2.364-1.507a7.66 7.66 0 01-1.503.75 9.45 9.45 0 01-5.277.53 11.18 11.18 0 01-1.92-.547 7.54 7.54 0 01-.953-.428c-.04-.028-.078-.038-.117-.064a.16.16 0 01-.053-.04c-.236-.125-.366-.213-.366-.213s.627 1.013 2.287 1.495a92.79 92.79 0 01-.876 1.052c-2.886-.09-3.982-1.926-3.982-1.926 0-4.078 1.88-7.384 1.88-7.384 1.882-1.369 3.67-1.33 3.67-1.33l.131.152c-2.351.66-3.436 1.66-3.436 1.66s.289-.152.771-.367c1.397-.595 2.507-.76 2.965-.799.078-.012.144-.025.223-.025a10.949 10.949 0 016.57 1.19s-1.033-.949-3.254-1.607l.183-.203s1.79-.039 3.67 1.33c0 0 1.88 3.306 1.88 7.385 0-.002-1.109 1.834-3.996 1.924z"/>
</symbol>
<symbol id="photo" viewBox="0 0 25 23">
	<path fill="#fff" fill-opacity=".53" d="M25 6.031v14.063a2.344 2.344 0 01-2.344 2.343H2.344A2.344 2.344 0 010 20.095V6.03a2.344 2.344 0 012.344-2.343H6.64l.6-1.607A2.34 2.34 0 019.434.563h6.128c.976 0 1.85.605 2.192 1.518l.605 1.607h4.297A2.344 2.344 0 0125 6.03zm-6.64 7.032a5.864 5.864 0 00-5.86-5.86 5.864 5.864 0 00-5.86 5.86 5.864 5.864 0 005.86 5.859 5.864 5.864 0 005.86-5.86zm-1.563 0a4.303 4.303 0 01-4.297 4.296 4.303 4.303 0 01-4.297-4.297A4.303 4.303 0 0112.5 8.767a4.303 4.303 0 014.297 4.296z"/>
</symbol>
<symbol id="twitter" viewBox="0 0 24 24">
	<path fill="#fff" d="M23.953 4.57a10 10 0 01-2.825.775 4.958 4.958 0 002.163-2.723c-.951.555-2.005.959-3.127 1.184a4.92 4.92 0 00-8.384 4.482C7.69 8.095 4.067 6.13 1.64 3.162a4.822 4.822 0 00-.666 2.475c0 1.71.87 3.213 2.188 4.096a4.904 4.904 0 01-2.228-.616v.06a4.923 4.923 0 003.946 4.827 4.998 4.998 0 01-2.212.085 4.936 4.936 0 004.604 3.417 9.867 9.867 0 01-6.102 2.105c-.39 0-.779-.023-1.17-.067a13.995 13.995 0 007.557 2.209c9.053 0 13.998-7.496 13.998-13.985 0-.21 0-.42-.015-.63A9.936 9.936 0 0024 4.59l-.047-.02z"/>
</symbol>
</svg>