<svg width="1319" height="1294" viewBox="0 0 1319 1294" fill="none" xmlns="http://www.w3.org/2000/svg">
<path d="M1131.82 380.923C1084.11 299.798 1015.65 232.393 933.246 185.417L661.989 647.982H1204.42C1204.57 554.217 1179.52 462.081 1131.82 380.923Z" fill="url(#paint0_linear_343_153)"/>
<path d="M661.991 647.983L390.735 1110.55C473.225 1157.38 566.771 1182.03 661.991 1182.03C757.212 1182.03 850.758 1157.38 933.248 1110.55L661.991 647.983Z" fill="url(#paint1_linear_343_153)"/>
<path d="M661.989 647.983L933.246 1110.55C1015.73 1063.68 1084.21 996.257 1131.82 915.055C1179.42 833.853 1204.46 741.74 1204.42 647.983H661.989Z" fill="url(#paint2_linear_343_153)" fill-opacity="0.12"/>
<path d="M661.991 113.94C566.752 113.796 473.169 138.456 390.735 185.417L661.991 647.982L933.248 185.417C850.814 138.456 757.231 113.796 661.991 113.94V113.94Z" fill="url(#paint3_linear_343_153)" fill-opacity="0.12"/>
<path d="M390.732 185.417C308.253 232.282 239.765 299.708 192.161 380.91C144.556 462.112 119.514 554.226 119.554 647.982H661.989L390.732 185.417Z" fill="url(#paint4_linear_343_153)"/>
<g filter="url(#filter0_b_343_153)">
<path d="M661.989 647.983H119.554C119.514 741.74 144.556 833.853 192.161 915.055C239.765 996.257 308.253 1063.68 390.732 1110.55L661.989 647.983Z" fill="url(#paint5_linear_343_153)" fill-opacity="0.07"/>
</g>
<path style="mix-blend-mode:multiply" opacity="0.75" d="M661.991 1145.04C940.822 1145.04 1166.86 922.499 1166.86 647.983C1166.86 373.466 940.822 150.926 661.991 150.926C383.16 150.926 157.123 373.466 157.123 647.983C157.123 922.499 383.16 1145.04 661.991 1145.04Z" fill="url(#paint6_radial_343_153)" fill-opacity="0.86"/>
<path d="M661.991 80.317L661.99 80.317C622.969 80.3098 584.047 84.1737 545.813 91.85C472.033 106.743 401.954 135.789 339.571 177.33L339.57 177.331C246.885 238.926 174.336 325.66 130.709 427.021C115.958 461.374 104.698 497.08 97.0923 533.617C81.4751 609.086 81.4751 686.88 97.0923 762.349C112.218 834.979 141.717 903.968 183.909 965.383L183.91 965.384C246.48 1056.64 334.59 1128.07 437.567 1171.02C437.567 1171.02 437.568 1171.02 437.568 1171.02L436.991 1172.4C471.977 1186.96 508.341 1198.08 545.552 1205.59L661.991 80.317ZM661.991 80.317C701.011 80.2983 739.933 84.1504 778.168 91.8149C815.283 99.3035 851.553 110.391 886.449 124.914C989.426 167.865 1077.54 239.295 1140.11 330.547L1140.11 330.548M661.991 80.317L1140.11 330.548M1140.11 330.548C1182.3 391.963 1211.8 460.952 1226.92 533.582C1242.54 609.051 1242.54 686.846 1226.92 762.316L1140.11 330.548ZM1205.93 647.983C1205.93 352.191 962.373 112.441 661.99 112.441C361.608 112.441 118.055 352.191 118.055 647.983C118.055 943.774 361.608 1183.52 661.99 1183.52C962.373 1183.52 1205.93 943.774 1205.93 647.983Z" fill="#4A2E86" stroke="url(#paint7_linear_343_153)" stroke-width="3"/>
<path style="mix-blend-mode:screen" d="M696.227 127.546C700.196 108.906 688.066 90.6276 669.133 86.7199C650.2 82.8122 631.634 94.7551 627.665 113.395C623.696 132.035 635.826 150.314 654.759 154.221C673.692 158.129 692.258 146.186 696.227 127.546Z" fill="url(#paint8_radial_343_153)"/>
<path d="M661.99 143.481C673.043 143.481 682.004 133.976 682.004 122.252C682.004 110.527 673.043 101.023 661.99 101.023C650.936 101.023 641.976 110.527 641.976 122.252C641.976 133.976 650.936 143.481 661.99 143.481Z" fill="#333333"/>
<path d="M661.99 140.432C673.043 140.432 682.004 131.61 682.004 120.727C682.004 109.845 673.043 101.023 661.99 101.023C650.936 101.023 641.976 109.845 641.976 120.727C641.976 131.61 650.936 140.432 661.99 140.432Z" fill="white"/>
<path d="M661.991 136.68C669.821 136.68 676.168 129.984 676.168 121.724C676.168 113.464 669.821 106.769 661.991 106.769C654.161 106.769 647.813 113.464 647.813 121.724C647.813 129.984 654.161 136.68 661.991 136.68Z" fill="#333333"/>
<path d="M661.991 134.685C669.821 134.685 676.168 128.436 676.168 120.727C676.168 113.018 669.821 106.769 661.991 106.769C654.161 106.769 647.813 113.018 647.813 120.727C647.813 128.436 654.161 134.685 661.991 134.685Z" fill="#B371ED"/>
<path d="M669.934 120.397C670.862 116.089 668.068 111.856 663.693 110.942C659.318 110.028 655.018 112.779 654.09 117.087C653.162 121.394 655.956 125.627 660.331 126.541C664.706 127.455 669.006 124.704 669.934 120.397Z" fill="white"/>
<path style="mix-blend-mode:screen" d="M929.637 225.585C948.982 225.585 964.664 210.146 964.664 191.101C964.664 172.055 948.982 156.616 929.637 156.616C910.293 156.616 894.611 172.055 894.611 191.101C894.611 210.146 910.293 225.585 929.637 225.585Z" fill="url(#paint9_radial_343_153)"/>
<path d="M929.639 214.085C940.692 214.085 949.653 204.581 949.653 192.857C949.653 181.132 940.692 171.628 929.639 171.628C918.585 171.628 909.625 181.132 909.625 192.857C909.625 204.581 918.585 214.085 929.639 214.085Z" fill="#333333"/>
<path d="M929.639 211.037C940.692 211.037 949.653 202.215 949.653 191.332C949.653 180.45 940.692 171.628 929.639 171.628C918.585 171.628 909.625 180.45 909.625 191.332C909.625 202.215 918.585 211.037 929.639 211.037Z" fill="white"/>
<path d="M929.636 207.286C937.466 207.286 943.813 200.59 943.813 192.33C943.813 184.07 937.466 177.375 929.636 177.375C921.806 177.375 915.458 184.07 915.458 192.33C915.458 200.59 921.806 207.286 929.636 207.286Z" fill="#333333"/>
<path d="M929.636 205.291C937.466 205.291 943.813 199.042 943.813 191.333C943.813 183.624 937.466 177.375 929.636 177.375C921.806 177.375 915.458 183.624 915.458 191.333C915.458 199.042 921.806 205.291 929.636 205.291Z" fill="#8D48D9"/>
<path d="M935.179 194.913C938.342 191.8 938.342 186.751 935.179 183.638C932.016 180.524 926.889 180.524 923.726 183.638C920.564 186.751 920.564 191.8 923.726 194.913C926.889 198.027 932.016 198.027 935.179 194.913Z" fill="white"/>
<path style="mix-blend-mode:screen" d="M1125.57 418.484C1144.92 418.484 1160.6 403.044 1160.6 383.999C1160.6 364.954 1144.92 349.515 1125.57 349.515C1106.23 349.515 1090.55 364.954 1090.55 383.999C1090.55 403.044 1106.23 418.484 1125.57 418.484Z" fill="url(#paint10_radial_343_153)"/>
<path d="M1125.58 406.991C1136.63 406.991 1145.59 397.486 1145.59 385.762C1145.59 374.038 1136.63 364.533 1125.58 364.533C1114.52 364.533 1105.56 374.038 1105.56 385.762C1105.56 397.486 1114.52 406.991 1125.58 406.991Z" fill="#333333"/>
<path d="M1125.58 403.935C1136.63 403.935 1145.59 395.113 1145.59 384.231C1145.59 373.348 1136.63 364.526 1125.58 364.526C1114.52 364.526 1105.56 373.348 1105.56 384.231C1105.56 395.113 1114.52 403.935 1125.58 403.935Z" fill="white"/>
<path d="M1125.57 400.184C1133.4 400.184 1139.75 393.488 1139.75 385.229C1139.75 376.969 1133.4 370.273 1125.57 370.273C1117.74 370.273 1111.4 376.969 1111.4 385.229C1111.4 393.488 1117.74 400.184 1125.57 400.184Z" fill="#333333"/>
<path d="M1125.57 398.189C1133.4 398.189 1139.75 391.94 1139.75 384.231C1139.75 376.522 1133.4 370.273 1125.57 370.273C1117.74 370.273 1111.4 376.522 1111.4 384.231C1111.4 391.94 1117.74 398.189 1125.57 398.189Z" fill="#F0EA8F"/>
<path d="M1131.3 387.879C1134.46 384.765 1134.46 379.717 1131.3 376.603C1128.14 373.489 1123.01 373.489 1119.85 376.603C1116.69 379.717 1116.69 384.765 1119.85 387.879C1123.01 390.992 1128.14 390.992 1131.3 387.879Z" fill="white"/>
<path style="mix-blend-mode:screen" d="M1197.29 681.997C1216.64 681.997 1232.32 666.558 1232.32 647.513C1232.32 628.468 1216.64 613.028 1197.29 613.028C1177.95 613.028 1162.27 628.468 1162.27 647.513C1162.27 666.558 1177.95 681.997 1197.29 681.997Z" fill="url(#paint11_radial_343_153)"/>
<path d="M1197.29 670.498C1208.34 670.498 1217.3 660.993 1217.3 649.269C1217.3 637.545 1208.34 628.04 1197.29 628.04C1186.24 628.04 1177.28 637.545 1177.28 649.269C1177.28 660.993 1186.24 670.498 1197.29 670.498Z" fill="#333333"/>
<path d="M1211.44 661.676C1219.26 653.981 1219.26 641.505 1211.44 633.81C1203.63 626.115 1190.95 626.115 1183.14 633.81C1175.32 641.505 1175.32 653.981 1183.14 661.676C1190.95 669.371 1203.63 669.371 1211.44 661.676Z" fill="white"/>
<path d="M1197.29 663.698C1205.12 663.698 1211.47 657.002 1211.47 648.742C1211.47 640.483 1205.12 633.787 1197.29 633.787C1189.46 633.787 1183.11 640.483 1183.11 648.742C1183.11 657.002 1189.46 663.698 1197.29 663.698Z" fill="#333333"/>
<path d="M1207.31 657.613C1212.85 652.162 1212.85 643.324 1207.31 637.873C1201.78 632.422 1192.8 632.422 1187.26 637.873C1181.73 643.324 1181.73 652.162 1187.26 657.613C1192.8 663.064 1201.78 663.064 1207.31 657.613Z" fill="#B071EC"/>
<path d="M1197.29 653.723C1201.77 653.723 1205.39 650.153 1205.39 645.749C1205.39 641.346 1201.77 637.776 1197.29 637.776C1192.82 637.776 1189.19 641.346 1189.19 645.749C1189.19 650.153 1192.82 653.723 1197.29 653.723Z" fill="white"/>
<path style="mix-blend-mode:screen" d="M1125.57 945.502C1144.92 945.502 1160.6 930.062 1160.6 911.017C1160.6 891.972 1144.92 876.533 1125.57 876.533C1106.23 876.533 1090.55 891.972 1090.55 911.017C1090.55 930.062 1106.23 945.502 1125.57 945.502Z" fill="url(#paint12_radial_343_153)"/>
<path d="M1125.58 934.002C1136.63 934.002 1145.59 924.498 1145.59 912.773C1145.59 901.049 1136.63 891.544 1125.58 891.544C1114.52 891.544 1105.56 901.049 1105.56 912.773C1105.56 924.498 1114.52 934.002 1125.58 934.002Z" fill="#333333"/>
<path d="M1125.58 930.953C1136.63 930.953 1145.59 922.131 1145.59 911.249C1145.59 900.366 1136.63 891.544 1125.58 891.544C1114.52 891.544 1105.56 900.366 1105.56 911.249C1105.56 922.131 1114.52 930.953 1125.58 930.953Z" fill="white"/>
<path d="M1125.57 927.202C1133.4 927.202 1139.75 920.506 1139.75 912.247C1139.75 903.987 1133.4 897.291 1125.57 897.291C1117.74 897.291 1111.4 903.987 1111.4 912.247C1111.4 920.506 1117.74 927.202 1125.57 927.202Z" fill="#333333"/>
<path d="M1125.57 925.207C1133.4 925.207 1139.75 918.958 1139.75 911.249C1139.75 903.54 1133.4 897.291 1125.57 897.291C1117.74 897.291 1111.4 903.54 1111.4 911.249C1111.4 918.958 1117.74 925.207 1125.57 925.207Z" fill="#B071EC"/>
<path d="M1125.58 917.226C1130.05 917.226 1133.67 913.657 1133.67 909.253C1133.67 904.85 1130.05 901.28 1125.58 901.28C1121.1 901.28 1117.48 904.85 1117.48 909.253C1117.48 913.657 1121.1 917.226 1125.58 917.226Z" fill="white"/>
<path style="mix-blend-mode:screen" d="M929.637 1138.4C948.982 1138.4 964.664 1122.96 964.664 1103.92C964.664 1084.87 948.982 1069.43 929.637 1069.43C910.293 1069.43 894.611 1084.87 894.611 1103.92C894.611 1122.96 910.293 1138.4 929.637 1138.4Z" fill="url(#paint13_radial_343_153)"/>
<path d="M929.639 1126.91C940.692 1126.91 949.653 1117.4 949.653 1105.68C949.653 1093.95 940.692 1084.45 929.639 1084.45C918.585 1084.45 909.625 1093.95 909.625 1105.68C909.625 1117.4 918.585 1126.91 929.639 1126.91Z" fill="#333333"/>
<path d="M929.639 1123.86C940.692 1123.86 949.653 1115.04 949.653 1104.15C949.653 1093.27 940.692 1084.45 929.639 1084.45C918.585 1084.45 909.625 1093.27 909.625 1104.15C909.625 1115.04 918.585 1123.86 929.639 1123.86Z" fill="white"/>
<path d="M929.636 1120.1C937.466 1120.1 943.813 1113.4 943.813 1105.15C943.813 1096.89 937.466 1090.19 929.636 1090.19C921.806 1090.19 915.458 1096.89 915.458 1105.15C915.458 1113.4 921.806 1120.1 929.636 1120.1Z" fill="#333333"/>
<path d="M929.636 1118.11C937.466 1118.11 943.813 1111.86 943.813 1104.15C943.813 1096.45 937.466 1090.2 929.636 1090.2C921.806 1090.2 915.458 1096.45 915.458 1104.15C915.458 1111.86 921.806 1118.11 929.636 1118.11Z" fill="#B071EC"/>
<path d="M929.638 1110.13C934.111 1110.13 937.736 1106.56 937.736 1102.16C937.736 1097.76 934.111 1094.19 929.638 1094.19C925.165 1094.19 921.54 1097.76 921.54 1102.16C921.54 1106.56 925.165 1110.13 929.638 1110.13Z" fill="white"/>
<path style="mix-blend-mode:screen" d="M686.754 1198.91C700.433 1185.44 700.433 1163.61 686.754 1150.14C673.075 1136.67 650.898 1136.67 637.219 1150.14C623.54 1163.61 623.54 1185.44 637.219 1198.91C650.898 1212.38 673.075 1212.38 686.754 1198.91Z" fill="url(#paint14_radial_343_153)"/>
<path d="M661.99 1197.51C673.044 1197.51 682.004 1188.01 682.004 1176.29C682.004 1164.56 673.044 1155.06 661.99 1155.06C650.937 1155.06 641.976 1164.56 641.976 1176.29C641.976 1188.01 650.937 1197.51 661.99 1197.51Z" fill="#333333"/>
<path d="M661.99 1194.47C673.044 1194.47 682.004 1185.64 682.004 1174.76C682.004 1163.88 673.044 1155.06 661.99 1155.06C650.937 1155.06 641.976 1163.88 641.976 1174.76C641.976 1185.64 650.937 1194.47 661.99 1194.47Z" fill="white"/>
<path d="M661.991 1190.72C669.821 1190.72 676.169 1184.02 676.169 1175.76C676.169 1167.5 669.821 1160.8 661.991 1160.8C654.161 1160.8 647.814 1167.5 647.814 1175.76C647.814 1184.02 654.161 1190.72 661.991 1190.72Z" fill="#333333"/>
<path d="M661.991 1188.72C669.821 1188.72 676.169 1182.47 676.169 1174.76C676.169 1167.05 669.821 1160.8 661.991 1160.8C654.161 1160.8 647.814 1167.05 647.814 1174.76C647.814 1182.47 654.161 1188.72 661.991 1188.72Z" fill="#B071EC"/>
<path d="M669.935 1174.47C670.863 1170.17 668.069 1165.93 663.694 1165.02C659.319 1164.11 655.019 1166.86 654.091 1171.16C653.162 1175.47 655.957 1179.7 660.332 1180.62C664.707 1181.53 669.006 1178.78 669.935 1174.47Z" fill="white"/>
<path style="mix-blend-mode:screen" d="M394.345 1138.4C413.689 1138.4 429.371 1122.96 429.371 1103.92C429.371 1084.87 413.689 1069.43 394.345 1069.43C375 1069.43 359.318 1084.87 359.318 1103.92C359.318 1122.96 375 1138.4 394.345 1138.4Z" fill="url(#paint15_radial_343_153)"/>
<path d="M394.342 1126.91C405.396 1126.91 414.357 1117.4 414.357 1105.68C414.357 1093.95 405.396 1084.45 394.342 1084.45C383.289 1084.45 374.328 1093.95 374.328 1105.68C374.328 1117.4 383.289 1126.91 394.342 1126.91Z" fill="#333333"/>
<path d="M394.342 1123.86C405.396 1123.86 414.357 1115.04 414.357 1104.15C414.357 1093.27 405.396 1084.45 394.342 1084.45C383.289 1084.45 374.328 1093.27 374.328 1104.15C374.328 1115.04 383.289 1123.86 394.342 1123.86Z" fill="white"/>
<path d="M394.343 1120.1C402.174 1120.1 408.521 1113.4 408.521 1105.14C408.521 1096.88 402.174 1090.19 394.343 1090.19C386.513 1090.19 380.166 1096.88 380.166 1105.14C380.166 1113.4 386.513 1120.1 394.343 1120.1Z" fill="#333333"/>
<path d="M394.343 1118.11C402.174 1118.11 408.521 1111.86 408.521 1104.15C408.521 1096.44 402.174 1090.2 394.343 1090.2C386.513 1090.2 380.166 1096.44 380.166 1104.15C380.166 1111.86 386.513 1118.11 394.343 1118.11Z" fill="#B071EC"/>
<path d="M394.346 1110.13C398.818 1110.13 402.444 1106.56 402.444 1102.16C402.444 1097.76 398.818 1094.19 394.346 1094.19C389.873 1094.19 386.247 1097.76 386.247 1102.16C386.247 1106.56 389.873 1110.13 394.346 1110.13Z" fill="white"/>
<path style="mix-blend-mode:screen" d="M198.407 945.502C217.752 945.502 233.434 930.062 233.434 911.017C233.434 891.972 217.752 876.533 198.407 876.533C179.063 876.533 163.381 891.972 163.381 911.017C163.381 930.062 179.063 945.502 198.407 945.502Z" fill="url(#paint16_radial_343_153)"/>
<path d="M198.405 934.002C209.458 934.002 218.419 924.498 218.419 912.773C218.419 901.049 209.458 891.544 198.405 891.544C187.351 891.544 178.391 901.049 178.391 912.773C178.391 924.498 187.351 934.002 198.405 934.002Z" fill="#333333"/>
<path d="M198.405 930.953C209.458 930.953 218.419 922.131 218.419 911.249C218.419 900.366 209.458 891.544 198.405 891.544C187.351 891.544 178.391 900.366 178.391 911.249C178.391 922.131 187.351 930.953 198.405 930.953Z" fill="white"/>
<path d="M198.406 927.202C206.236 927.202 212.583 920.506 212.583 912.247C212.583 903.987 206.236 897.291 198.406 897.291C190.576 897.291 184.228 903.987 184.228 912.247C184.228 920.506 190.576 927.202 198.406 927.202Z" fill="#333333"/>
<path d="M198.406 925.207C206.236 925.207 212.583 918.958 212.583 911.249C212.583 903.54 206.236 897.291 198.406 897.291C190.576 897.291 184.228 903.54 184.228 911.249C184.228 918.958 190.576 925.207 198.406 925.207Z" fill="#B071EC"/>
<path d="M198.408 917.226C202.881 917.226 206.506 913.657 206.506 909.253C206.506 904.85 202.881 901.28 198.408 901.28C193.935 901.28 190.31 904.85 190.31 909.253C190.31 913.657 193.935 917.226 198.408 917.226Z" fill="white"/>
<path style="mix-blend-mode:screen" d="M126.691 681.997C146.036 681.997 161.717 666.558 161.717 647.513C161.717 628.468 146.036 613.028 126.691 613.028C107.346 613.028 91.6646 628.468 91.6646 647.513C91.6646 666.558 107.346 681.997 126.691 681.997Z" fill="url(#paint17_radial_343_153)"/>
<path d="M126.689 670.498C137.742 670.498 146.703 660.993 146.703 649.269C146.703 637.545 137.742 628.04 126.689 628.04C115.635 628.04 106.675 637.545 106.675 649.269C106.675 660.993 115.635 670.498 126.689 670.498Z" fill="#333333"/>
<path d="M146.185 652.192C148.694 641.594 142.002 630.999 131.237 628.529C120.472 626.059 109.711 632.648 107.202 643.246C104.693 653.845 111.386 664.439 122.151 666.909C132.916 669.379 143.676 662.79 146.185 652.192Z" fill="white"/>
<path d="M126.69 663.698C134.52 663.698 140.867 657.002 140.867 648.742C140.867 640.483 134.52 633.787 126.69 633.787C118.86 633.787 112.512 640.483 112.512 648.742C112.512 657.002 118.86 663.698 126.69 663.698Z" fill="#333333"/>
<path d="M140.501 650.948C142.285 643.442 137.55 635.933 129.926 634.176C122.302 632.42 114.675 637.081 112.891 644.587C111.107 652.093 115.842 659.602 123.466 661.358C131.09 663.115 138.717 658.454 140.501 650.948Z" fill="#B071EC"/>
<path d="M126.692 653.723C131.165 653.723 134.79 650.153 134.79 645.749C134.79 641.346 131.165 637.776 126.692 637.776C122.219 637.776 118.594 641.346 118.594 645.749C118.594 650.153 122.219 653.723 126.692 653.723Z" fill="white"/>
<path style="mix-blend-mode:screen" d="M198.408 418.484C217.752 418.484 233.434 403.044 233.434 383.999C233.434 364.954 217.752 349.515 198.408 349.515C179.063 349.515 163.381 364.954 163.381 383.999C163.381 403.044 179.063 418.484 198.408 418.484Z" fill="url(#paint18_radial_343_153)"/>
<path d="M198.405 406.991C209.459 406.991 218.419 397.486 218.419 385.762C218.419 374.038 209.459 364.533 198.405 364.533C187.352 364.533 178.391 374.038 178.391 385.762C178.391 397.486 187.352 406.991 198.405 406.991Z" fill="#333333"/>
<path d="M198.405 403.935C209.459 403.935 218.419 395.113 218.419 384.231C218.419 373.348 209.459 364.526 198.405 364.526C187.352 364.526 178.391 373.348 178.391 384.231C178.391 395.113 187.352 403.935 198.405 403.935Z" fill="white"/>
<path d="M198.406 400.184C206.237 400.184 212.584 393.488 212.584 385.229C212.584 376.969 206.237 370.273 198.406 370.273C190.576 370.273 184.229 376.969 184.229 385.229C184.229 393.488 190.576 400.184 198.406 400.184Z" fill="#333333"/>
<path d="M198.406 398.189C206.237 398.189 212.584 391.94 212.584 384.231C212.584 376.522 206.237 370.273 198.406 370.273C190.576 370.273 184.229 376.522 184.229 384.231C184.229 391.94 190.576 398.189 198.406 398.189Z" fill="#B071EC"/>
<path d="M206.225 384.282C207.383 380.029 204.819 375.657 200.499 374.517C196.179 373.378 191.738 375.902 190.58 380.155C189.423 384.408 191.987 388.78 196.307 389.92C200.627 391.06 205.068 388.536 206.225 384.282Z" fill="white"/>
<path style="mix-blend-mode:screen" d="M394.345 225.585C413.69 225.585 429.372 210.146 429.372 191.101C429.372 172.055 413.69 156.616 394.345 156.616C375.001 156.616 359.319 172.055 359.319 191.101C359.319 210.146 375.001 225.585 394.345 225.585Z" fill="url(#paint19_radial_343_153)"/>
<path d="M394.343 214.085C405.396 214.085 414.357 204.581 414.357 192.857C414.357 181.132 405.396 171.628 394.343 171.628C383.289 171.628 374.329 181.132 374.329 192.857C374.329 204.581 383.289 214.085 394.343 214.085Z" fill="#333333"/>
<path d="M394.343 211.037C405.396 211.037 414.357 202.215 414.357 191.332C414.357 180.45 405.396 171.628 394.343 171.628C383.289 171.628 374.329 180.45 374.329 191.332C374.329 202.215 383.289 211.037 394.343 211.037Z" fill="white"/>
<path d="M394.345 207.285C402.175 207.285 408.522 200.589 408.522 192.33C408.522 184.07 402.175 177.374 394.345 177.374C386.515 177.374 380.167 184.07 380.167 192.33C380.167 200.589 386.515 207.285 394.345 207.285Z" fill="#333333"/>
<path d="M394.344 205.291C402.174 205.291 408.521 199.042 408.521 191.333C408.521 183.624 402.174 177.375 394.344 177.375C386.514 177.375 380.166 183.624 380.166 191.333C380.166 199.042 386.514 205.291 394.344 205.291Z" fill="#B071EC"/>
<path d="M402.229 191.186C403.261 186.902 400.571 182.604 396.219 181.587C391.867 180.571 387.502 183.22 386.47 187.504C385.437 191.788 388.127 196.086 392.479 197.103C396.831 198.119 401.196 195.47 402.229 191.186Z" fill="white"/>
<path style="mix-blend-mode:screen" d="M1203.55 653.596C1243.38 614.382 1272.74 579.709 1269.12 576.151C1265.51 572.593 1230.29 601.497 1190.46 640.711C1150.63 679.924 1121.27 714.597 1124.89 718.155C1128.5 721.713 1163.72 692.809 1203.55 653.596Z" fill="url(#paint20_radial_343_153)"/>
<path style="mix-blend-mode:screen" d="M1197.01 779.633C1207.59 779.633 1216.18 720.32 1216.18 647.153C1216.18 573.987 1207.59 514.674 1197.01 514.674C1186.42 514.674 1177.83 573.987 1177.83 647.153C1177.83 720.32 1186.42 779.633 1197.01 779.633Z" fill="url(#paint21_radial_343_153)"/>
<path style="mix-blend-mode:screen" d="M253.817 1118.19C254.82 1128.74 314.68 1131.66 387.517 1124.73C460.355 1117.79 518.587 1103.63 517.584 1093.09C516.581 1082.55 456.721 1079.62 383.884 1086.55C311.046 1093.49 252.814 1107.65 253.817 1118.19Z" fill="url(#paint22_radial_343_153)"/>
<path style="mix-blend-mode:screen" d="M7.71967 575.01C3.45622 581.643 49.8954 619.091 111.444 658.651C172.993 698.212 226.345 724.905 230.609 718.272C234.872 711.639 188.433 674.191 126.884 634.631C65.3347 595.07 11.9831 568.377 7.71967 575.01Z" fill="url(#paint23_radial_343_153)" fill-opacity="0.3"/>
<path style="mix-blend-mode:screen" d="M989.374 252.567C1022.76 219.694 1022.76 166.396 989.374 133.522C955.984 100.649 901.848 100.649 868.458 133.522C835.068 166.396 835.068 219.694 868.458 252.567C901.848 285.441 955.984 285.441 989.374 252.567Z" fill="url(#paint24_radial_343_153)"/>
<path style="mix-blend-mode:screen" d="M990.374 250.567C1023.76 217.694 1023.76 164.396 990.374 131.522C956.984 98.6491 902.848 98.6491 869.458 131.522C836.068 164.396 836.068 217.694 869.458 250.567C902.848 283.441 956.984 283.441 990.374 250.567Z" fill="url(#paint25_radial_343_153)"/>
<path style="mix-blend-mode:screen" d="M925.599 210.358C980.607 210.358 1025.2 205.8 1025.2 200.179C1025.2 194.557 980.607 190 925.599 190C870.592 190 826 194.557 826 200.179C826 205.8 870.592 210.358 925.599 210.358Z" fill="url(#paint26_radial_343_153)"/>
<path style="mix-blend-mode:screen" d="M929.339 293.116C935.049 293.116 939.678 249.214 939.678 195.058C939.678 140.902 935.049 96.9995 929.339 96.9995C923.629 96.9995 919 140.902 919 195.058C919 249.214 923.629 293.116 929.339 293.116Z" fill="url(#paint27_radial_343_153)"/>
<path style="mix-blend-mode:screen" opacity="0.35" d="M723.374 180.567C756.764 147.694 756.764 94.3958 723.374 61.5224C689.984 28.6491 635.848 28.6491 602.458 61.5225C569.068 94.3958 569.068 147.694 602.458 180.567C635.848 213.441 689.984 213.441 723.374 180.567Z" fill="url(#paint28_radial_343_153)"/>
<path style="mix-blend-mode:screen" opacity="0.35" d="M724.374 178.567C757.764 145.694 757.764 92.3958 724.374 59.5224C690.984 26.6491 636.848 26.6491 603.458 59.5225C570.068 92.3958 570.068 145.694 603.458 178.567C636.848 211.441 690.984 211.441 724.374 178.567Z" fill="url(#paint29_radial_343_153)"/>
<path style="mix-blend-mode:screen" opacity="0.35" d="M659.599 138.358C714.607 138.358 759.199 133.8 759.199 128.179C759.199 122.557 714.607 118 659.599 118C604.592 118 560 122.557 560 128.179C560 133.8 604.592 138.358 659.599 138.358Z" fill="url(#paint30_radial_343_153)"/>
<path style="mix-blend-mode:screen" opacity="0.35" d="M663.339 221.117C669.049 221.117 673.678 177.215 673.678 123.058C673.678 68.9022 669.049 25 663.339 25C657.629 25 653 68.9022 653 123.058C653 177.215 657.629 221.117 663.339 221.117Z" fill="url(#paint31_radial_343_153)"/>
<path style="mix-blend-mode:screen" d="M451.374 250.567C484.764 217.694 484.764 164.396 451.374 131.522C417.984 98.6491 363.848 98.6491 330.458 131.522C297.068 164.396 297.068 217.694 330.458 250.567C363.848 283.441 417.984 283.441 451.374 250.567Z" fill="url(#paint32_radial_343_153)"/>
<path style="mix-blend-mode:screen" d="M452.374 248.567C485.764 215.694 485.764 162.396 452.374 129.522C418.984 96.6491 364.848 96.6491 331.458 129.522C298.068 162.396 298.068 215.694 331.458 248.567C364.848 281.441 418.984 281.441 452.374 248.567Z" fill="url(#paint33_radial_343_153)"/>
<path style="mix-blend-mode:screen" d="M387.599 208.358C442.607 208.358 487.199 203.8 487.199 198.179C487.199 192.557 442.607 188 387.599 188C332.592 188 288 192.557 288 198.179C288 203.8 332.592 208.358 387.599 208.358Z" fill="url(#paint34_radial_343_153)"/>
<path style="mix-blend-mode:screen" d="M391.339 291.117C397.049 291.117 401.678 247.215 401.678 193.058C401.678 138.902 397.049 95 391.339 95C385.629 95 381 138.902 381 193.058C381 247.215 385.629 291.117 391.339 291.117Z" fill="url(#paint35_radial_343_153)"/>
<path style="mix-blend-mode:screen" d="M720.374 1233.57C753.764 1200.69 753.764 1147.4 720.374 1114.52C686.984 1081.65 632.848 1081.65 599.458 1114.52C566.068 1147.4 566.068 1200.69 599.458 1233.57C632.848 1266.44 686.984 1266.44 720.374 1233.57Z" fill="url(#paint36_radial_343_153)"/>
<path style="mix-blend-mode:screen" d="M721.374 1231.57C754.764 1198.69 754.764 1145.4 721.374 1112.52C687.984 1079.65 633.848 1079.65 600.458 1112.52C567.068 1145.4 567.068 1198.69 600.458 1231.57C633.848 1264.44 687.984 1264.44 721.374 1231.57Z" fill="url(#paint37_radial_343_153)"/>
<path style="mix-blend-mode:screen" d="M656.599 1191.36C711.607 1191.36 756.199 1186.8 756.199 1181.18C756.199 1175.56 711.607 1171 656.599 1171C601.592 1171 557 1175.56 557 1181.18C557 1186.8 601.592 1191.36 656.599 1191.36Z" fill="url(#paint38_radial_343_153)"/>
<path style="mix-blend-mode:screen" d="M660.339 1274.12C666.049 1274.12 670.678 1230.21 670.678 1176.06C670.678 1121.9 666.049 1078 660.339 1078C654.629 1078 650 1121.9 650 1176.06C650 1230.21 654.629 1274.12 660.339 1274.12Z" fill="url(#paint39_radial_343_153)"/>
<path style="mix-blend-mode:screen" d="M1185.37 973.567C1218.76 940.694 1218.76 887.396 1185.37 854.522C1151.98 821.649 1097.85 821.649 1064.46 854.522C1031.07 887.396 1031.07 940.694 1064.46 973.567C1097.85 1006.44 1151.98 1006.44 1185.37 973.567Z" fill="url(#paint40_radial_343_153)"/>
<path style="mix-blend-mode:screen" d="M1186.37 971.567C1219.76 938.694 1219.76 885.396 1186.37 852.522C1152.98 819.649 1098.85 819.649 1065.46 852.522C1032.07 885.396 1032.07 938.694 1065.46 971.567C1098.85 1004.44 1152.98 1004.44 1186.37 971.567Z" fill="url(#paint41_radial_343_153)"/>
<path style="mix-blend-mode:screen" d="M1121.6 931.358C1176.61 931.358 1221.2 926.8 1221.2 921.179C1221.2 915.557 1176.61 911 1121.6 911C1066.59 911 1022 915.557 1022 921.179C1022 926.8 1066.59 931.358 1121.6 931.358Z" fill="url(#paint42_radial_343_153)"/>
<path style="mix-blend-mode:screen" d="M1125.34 1014.12C1131.05 1014.12 1135.68 970.215 1135.68 916.058C1135.68 861.902 1131.05 818 1125.34 818C1119.63 818 1115 861.902 1115 916.058C1115 970.215 1119.63 1014.12 1125.34 1014.12Z" fill="url(#paint43_radial_343_153)"/>
<path style="mix-blend-mode:screen" d="M258.374 973.567C291.764 940.694 291.764 887.396 258.374 854.522C224.984 821.649 170.848 821.649 137.458 854.522C104.068 887.396 104.068 940.694 137.458 973.567C170.848 1006.44 224.984 1006.44 258.374 973.567Z" fill="url(#paint44_radial_343_153)"/>
<path style="mix-blend-mode:screen" d="M259.374 971.567C292.764 938.694 292.764 885.396 259.374 852.522C225.984 819.649 171.848 819.649 138.458 852.522C105.068 885.396 105.068 938.694 138.458 971.567C171.848 1004.44 225.984 1004.44 259.374 971.567Z" fill="url(#paint45_radial_343_153)"/>
<path style="mix-blend-mode:screen" d="M194.599 931.358C249.607 931.358 294.199 926.8 294.199 921.179C294.199 915.557 249.607 911 194.599 911C139.592 911 95 915.557 95 921.179C95 926.8 139.592 931.358 194.599 931.358Z" fill="url(#paint46_radial_343_153)"/>
<path style="mix-blend-mode:screen" d="M198.339 1014.12C204.049 1014.12 208.678 970.215 208.678 916.058C208.678 861.902 204.049 818 198.339 818C192.629 818 188 861.902 188 916.058C188 970.215 192.629 1014.12 198.339 1014.12Z" fill="url(#paint47_radial_343_153)"/>
<path style="mix-blend-mode:screen" opacity="0.34" d="M258.374 442.567C291.764 409.694 291.764 356.396 258.374 323.522C224.984 290.649 170.848 290.649 137.458 323.522C104.068 356.396 104.068 409.694 137.458 442.567C170.848 475.441 224.984 475.441 258.374 442.567Z" fill="url(#paint48_radial_343_153)"/>
<path style="mix-blend-mode:screen" opacity="0.34" d="M259.374 440.567C292.764 407.694 292.764 354.396 259.374 321.522C225.984 288.649 171.848 288.649 138.458 321.522C105.068 354.396 105.068 407.694 138.458 440.567C171.848 473.441 225.984 473.441 259.374 440.567Z" fill="url(#paint49_radial_343_153)"/>
<path style="mix-blend-mode:screen" opacity="0.34" d="M194.599 400.358C249.607 400.358 294.199 395.8 294.199 390.179C294.199 384.557 249.607 380 194.599 380C139.592 380 95 384.557 95 390.179C95 395.8 139.592 400.358 194.599 400.358Z" fill="url(#paint50_radial_343_153)"/>
<path style="mix-blend-mode:screen" opacity="0.34" d="M187.374 706.567C220.764 673.694 220.764 620.396 187.374 587.522C153.984 554.649 99.8479 554.649 66.4579 587.522C33.0679 620.396 33.0679 673.694 66.458 706.567C99.848 739.441 153.984 739.441 187.374 706.567Z" fill="url(#paint51_radial_343_153)"/>
<path style="mix-blend-mode:screen" opacity="0.34" d="M188.374 704.567C221.764 671.694 221.764 618.396 188.374 585.522C154.984 552.649 100.848 552.649 67.4579 585.522C34.0679 618.396 34.0679 671.694 67.458 704.567C100.848 737.441 154.984 737.441 188.374 704.567Z" fill="url(#paint52_radial_343_153)"/>
<path style="mix-blend-mode:screen" opacity="0.34" d="M123.599 664.358C178.607 664.358 223.199 659.8 223.199 654.179C223.199 648.557 178.607 644 123.599 644C68.5922 644 24 648.557 24 654.179C24 659.8 68.5922 664.358 123.599 664.358Z" fill="url(#paint53_radial_343_153)"/>
<path style="mix-blend-mode:screen" opacity="0.34" d="M454.374 1163.57C487.764 1130.69 487.764 1077.4 454.374 1044.52C420.984 1011.65 366.848 1011.65 333.458 1044.52C300.068 1077.4 300.068 1130.69 333.458 1163.57C366.848 1196.44 420.984 1196.44 454.374 1163.57Z" fill="url(#paint54_radial_343_153)"/>
<path style="mix-blend-mode:screen" opacity="0.34" d="M455.374 1161.57C488.764 1128.69 488.764 1075.4 455.374 1042.52C421.984 1009.65 367.848 1009.65 334.458 1042.52C301.068 1075.4 301.068 1128.69 334.458 1161.57C367.848 1194.44 421.984 1194.44 455.374 1161.57Z" fill="url(#paint55_radial_343_153)"/>
<path style="mix-blend-mode:screen" opacity="0.34" d="M390.599 1121.36C445.607 1121.36 490.199 1116.8 490.199 1111.18C490.199 1105.56 445.607 1101 390.599 1101C335.592 1101 291 1105.56 291 1111.18C291 1116.8 335.592 1121.36 390.599 1121.36Z" fill="url(#paint56_radial_343_153)"/>
<path style="mix-blend-mode:screen" opacity="0.34" d="M988.374 1163.57C1021.76 1130.69 1021.76 1077.4 988.374 1044.52C954.984 1011.65 900.848 1011.65 867.458 1044.52C834.068 1077.4 834.068 1130.69 867.458 1163.57C900.848 1196.44 954.984 1196.44 988.374 1163.57Z" fill="url(#paint57_radial_343_153)"/>
<path style="mix-blend-mode:screen" opacity="0.34" d="M989.374 1161.57C1022.76 1128.69 1022.76 1075.4 989.374 1042.52C955.984 1009.65 901.848 1009.65 868.458 1042.52C835.068 1075.4 835.068 1128.69 868.458 1161.57C901.848 1194.44 955.984 1194.44 989.374 1161.57Z" fill="url(#paint58_radial_343_153)"/>
<path style="mix-blend-mode:screen" opacity="0.34" d="M924.599 1121.36C979.607 1121.36 1024.2 1116.8 1024.2 1111.18C1024.2 1105.56 979.607 1101 924.599 1101C869.592 1101 825 1105.56 825 1111.18C825 1116.8 869.592 1121.36 924.599 1121.36Z" fill="url(#paint59_radial_343_153)"/>
<path style="mix-blend-mode:screen" opacity="0.34" d="M198.339 483.117C204.049 483.117 208.678 439.215 208.678 385.058C208.678 330.902 204.049 287 198.339 287C192.629 287 188 330.902 188 385.058C188 439.215 192.629 483.117 198.339 483.117Z" fill="url(#paint60_radial_343_153)"/>
<path style="mix-blend-mode:screen" opacity="0.34" d="M1186.37 443.567C1219.76 410.694 1219.76 357.396 1186.37 324.522C1152.98 291.649 1098.85 291.649 1065.46 324.522C1032.07 357.396 1032.07 410.694 1065.46 443.567C1098.85 476.441 1152.98 476.441 1186.37 443.567Z" fill="url(#paint61_radial_343_153)"/>
<path style="mix-blend-mode:screen" opacity="0.34" d="M1187.37 441.567C1220.76 408.694 1220.76 355.396 1187.37 322.522C1153.98 289.649 1099.85 289.649 1066.46 322.522C1033.07 355.396 1033.07 408.694 1066.46 441.567C1099.85 474.441 1153.98 474.441 1187.37 441.567Z" fill="url(#paint62_radial_343_153)"/>
<path style="mix-blend-mode:screen" opacity="0.34" d="M1122.6 401.358C1177.61 401.358 1222.2 396.8 1222.2 391.179C1222.2 385.557 1177.61 381 1122.6 381C1067.59 381 1023 385.557 1023 391.179C1023 396.8 1067.59 401.358 1122.6 401.358Z" fill="url(#paint63_radial_343_153)"/>
<path style="mix-blend-mode:screen" opacity="0.34" d="M1126.34 484.117C1132.05 484.117 1136.68 440.215 1136.68 386.058C1136.68 331.902 1132.05 288 1126.34 288C1120.63 288 1116 331.902 1116 386.058C1116 440.215 1120.63 484.117 1126.34 484.117Z" fill="url(#paint64_radial_343_153)"/>
<path style="mix-blend-mode:screen" opacity="0.34" d="M1257.37 707.567C1290.76 674.694 1290.76 621.396 1257.37 588.522C1223.98 555.649 1169.85 555.649 1136.46 588.522C1103.07 621.396 1103.07 674.694 1136.46 707.567C1169.85 740.441 1223.98 740.441 1257.37 707.567Z" fill="url(#paint65_radial_343_153)"/>
<path style="mix-blend-mode:screen" opacity="0.34" d="M1258.37 705.567C1291.76 672.694 1291.76 619.396 1258.37 586.522C1224.98 553.649 1170.85 553.649 1137.46 586.522C1104.07 619.396 1104.07 672.694 1137.46 705.567C1170.85 738.441 1224.98 738.441 1258.37 705.567Z" fill="url(#paint66_radial_343_153)"/>
<defs>
<filter id="filter0_b_343_153" x="61.554" y="589.983" width="658.435" height="578.565" filterUnits="userSpaceOnUse" color-interpolation-filters="sRGB">
<feFlood flood-opacity="0" result="BackgroundImageFix"/>
<feGaussianBlur in="BackgroundImage" stdDeviation="29"/>
<feComposite in2="SourceAlpha" operator="in" result="effect1_backgroundBlur_343_153"/>
<feBlend mode="normal" in="SourceGraphic" in2="effect1_backgroundBlur_343_153" result="shape"/>
</filter>
<linearGradient id="paint0_linear_343_153" x1="933.207" y1="185.417" x2="933.207" y2="647.982" gradientUnits="userSpaceOnUse">
<stop stop-color="#6627AA"/>
<stop offset="1" stop-color="#6627AA" stop-opacity="0"/>
</linearGradient>
<linearGradient id="paint1_linear_343_153" x1="661.992" y1="647.983" x2="661.992" y2="1182.03" gradientUnits="userSpaceOnUse">
<stop stop-color="#6627AA"/>
<stop offset="1" stop-color="#6627AA" stop-opacity="0"/>
</linearGradient>
<linearGradient id="paint2_linear_343_153" x1="933.206" y1="647.983" x2="933.206" y2="1110.55" gradientUnits="userSpaceOnUse">
<stop stop-color="#FFFCFC"/>
<stop offset="1" stop-color="#FFFCFC" stop-opacity="0"/>
</linearGradient>
<linearGradient id="paint3_linear_343_153" x1="661.992" y1="113.939" x2="661.992" y2="647.982" gradientUnits="userSpaceOnUse">
<stop stop-color="white"/>
<stop offset="1" stop-color="white" stop-opacity="0"/>
</linearGradient>
<linearGradient id="paint4_linear_343_153" x1="390.772" y1="185.417" x2="390.772" y2="647.982" gradientUnits="userSpaceOnUse">
<stop stop-color="#6627AA"/>
<stop offset="1" stop-color="#6627AA" stop-opacity="0"/>
</linearGradient>
<linearGradient id="paint5_linear_343_153" x1="390.772" y1="647.983" x2="390.772" y2="1110.55" gradientUnits="userSpaceOnUse">
<stop stop-color="white"/>
<stop offset="1" stop-color="white" stop-opacity="0"/>
</linearGradient>
<radialGradient id="paint6_radial_343_153" cx="0" cy="0" r="1" gradientUnits="userSpaceOnUse" gradientTransform="translate(661.991 647.983) scale(504.869 497.057)">
<stop stop-color="white"/>
<stop offset="0.63" stop-color="white"/>
<stop offset="0.73" stop-color="white"/>
<stop offset="0.83" stop-color="#FDFDFD"/>
<stop offset="0.87" stop-color="#F6F6F6"/>
<stop offset="0.89" stop-color="#EBEBEB"/>
<stop offset="0.91" stop-color="#DADADA"/>
<stop offset="0.93" stop-color="#C4C4C4"/>
<stop offset="0.95" stop-color="#A8A8A8"/>
<stop offset="0.96" stop-color="#888888"/>
<stop offset="0.97" stop-color="#626262"/>
<stop offset="0.99" stop-color="#373737"/>
<stop offset="1"/>
</radialGradient>
<linearGradient id="paint7_linear_343_153" x1="662.008" y1="78.8169" x2="662.008" y2="1217.15" gradientUnits="userSpaceOnUse">
<stop stop-color="#9836FF"/>
<stop offset="0.135417" stop-color="#9836FF" stop-opacity="0.130208"/>
<stop offset="1" stop-color="#9836FF" stop-opacity="0"/>
</linearGradient>
<radialGradient id="paint8_radial_343_153" cx="0" cy="0" r="1" gradientUnits="userSpaceOnUse" gradientTransform="translate(661.941 120.513) scale(35.0264 34.4845)">
<stop stop-color="#FCEE21"/>
<stop offset="1"/>
</radialGradient>
<radialGradient id="paint9_radial_343_153" cx="0" cy="0" r="1" gradientUnits="userSpaceOnUse" gradientTransform="translate(929.644 191.094) scale(35.0264 34.4845)">
<stop stop-color="#FCEE21"/>
<stop offset="1"/>
</radialGradient>
<radialGradient id="paint10_radial_343_153" cx="0" cy="0" r="1" gradientUnits="userSpaceOnUse" gradientTransform="translate(1125.57 383.999) scale(35.0265 34.4845)">
<stop stop-color="#FCEE21"/>
<stop offset="1"/>
</radialGradient>
<radialGradient id="paint11_radial_343_153" cx="0" cy="0" r="1" gradientUnits="userSpaceOnUse" gradientTransform="translate(1197.29 647.506) scale(35.0264 34.4845)">
<stop stop-color="#FCEE21"/>
<stop offset="1"/>
</radialGradient>
<radialGradient id="paint12_radial_343_153" cx="0" cy="0" r="1" gradientUnits="userSpaceOnUse" gradientTransform="translate(1125.57 911.017) scale(35.0265 34.4845)">
<stop stop-color="#FCEE21"/>
<stop offset="1"/>
</radialGradient>
<radialGradient id="paint13_radial_343_153" cx="0" cy="0" r="1" gradientUnits="userSpaceOnUse" gradientTransform="translate(929.644 1103.92) scale(35.0264 34.4845)">
<stop stop-color="#FCEE21"/>
<stop offset="1"/>
</radialGradient>
<radialGradient id="paint14_radial_343_153" cx="0" cy="0" r="1" gradientUnits="userSpaceOnUse" gradientTransform="translate(661.992 1174.53) scale(35.0264 34.4845)">
<stop stop-color="#FCEE21"/>
<stop offset="1"/>
</radialGradient>
<radialGradient id="paint15_radial_343_153" cx="0" cy="0" r="1" gradientUnits="userSpaceOnUse" gradientTransform="translate(394.345 1103.92) scale(35.0264 34.4845)">
<stop stop-color="#FCEE21"/>
<stop offset="1"/>
</radialGradient>
<radialGradient id="paint16_radial_343_153" cx="0" cy="0" r="1" gradientUnits="userSpaceOnUse" gradientTransform="translate(198.414 911.017) scale(35.0264 34.4845)">
<stop stop-color="#FCEE21"/>
<stop offset="1"/>
</radialGradient>
<radialGradient id="paint17_radial_343_153" cx="0" cy="0" r="1" gradientUnits="userSpaceOnUse" gradientTransform="translate(126.691 647.506) scale(35.0264 34.4845)">
<stop stop-color="#FCEE21"/>
<stop offset="1"/>
</radialGradient>
<radialGradient id="paint18_radial_343_153" cx="0" cy="0" r="1" gradientUnits="userSpaceOnUse" gradientTransform="translate(198.415 383.999) scale(35.0264 34.4845)">
<stop stop-color="#FCEE21"/>
<stop offset="1"/>
</radialGradient>
<radialGradient id="paint19_radial_343_153" cx="0" cy="0" r="1" gradientUnits="userSpaceOnUse" gradientTransform="translate(394.345 191.094) scale(35.0264 34.4845)">
<stop stop-color="#FCEE21"/>
<stop offset="1"/>
</radialGradient>
<radialGradient id="paint20_radial_343_153" cx="0" cy="0" r="1" gradientUnits="userSpaceOnUse" gradientTransform="translate(1219.52 665.14) rotate(-135.447) scale(9.07606 98.6145)">
<stop stop-color="#BFEAFF"/>
<stop offset="0.43" stop-color="#6E8793"/>
<stop offset="1"/>
</radialGradient>
<radialGradient id="paint21_radial_343_153" cx="0" cy="0" r="1" gradientUnits="userSpaceOnUse" gradientTransform="translate(1198.53 645.734) rotate(180) scale(18.9029 129.072)">
<stop stop-color="#B274AA"/>
<stop offset="0.61" stop-color="#482F44"/>
<stop offset="1"/>
</radialGradient>
<radialGradient id="paint22_radial_343_153" cx="0" cy="0" r="1" gradientUnits="userSpaceOnUse" gradientTransform="translate(387.258 1107.03) rotate(-95.4378) scale(18.9029 129.072)">
<stop stop-color="#B274AA"/>
<stop offset="0.61" stop-color="#482F44"/>
<stop offset="1"/>
</radialGradient>
<radialGradient id="paint23_radial_343_153" cx="0" cy="0" r="1" gradientUnits="userSpaceOnUse" gradientTransform="translate(119.742 648.366) rotate(-57.2691) scale(14.0768 129.072)">
<stop stop-color="#B274AA"/>
<stop offset="0.61" stop-color="#482F44"/>
<stop offset="1"/>
</radialGradient>
<radialGradient id="paint24_radial_343_153" cx="0" cy="0" r="1" gradientUnits="userSpaceOnUse" gradientTransform="translate(928.915 193.053) rotate(-90) scale(81.9226 83.2101)">
<stop stop-color="#121A1E"/>
<stop offset="0.49" stop-color="#8525EA"/>
<stop offset="1"/>
</radialGradient>
<radialGradient id="paint25_radial_343_153" cx="0" cy="0" r="1" gradientUnits="userSpaceOnUse" gradientTransform="translate(929.915 191.053) rotate(-90) scale(81.9226 83.2101)">
<stop stop-color="#121A1E"/>
<stop offset="0.49" stop-color="#8525EA"/>
<stop offset="1"/>
</radialGradient>
<radialGradient id="paint26_radial_343_153" cx="0" cy="0" r="1" gradientUnits="userSpaceOnUse" gradientTransform="translate(931.775 184.078) rotate(-90) scale(9.63935 97.2557)">
<stop stop-color="#BFEAFF"/>
<stop offset="0.43" stop-color="#6E8793"/>
<stop offset="1"/>
</radialGradient>
<radialGradient id="paint27_radial_343_153" cx="0" cy="0" r="1" gradientUnits="userSpaceOnUse" gradientTransform="translate(882.866 191.312) rotate(180) scale(9.79191 95.7614)">
<stop stop-color="#BFEAFF"/>
<stop offset="0.43" stop-color="#6E8793"/>
<stop offset="1"/>
</radialGradient>
<radialGradient id="paint28_radial_343_153" cx="0" cy="0" r="1" gradientUnits="userSpaceOnUse" gradientTransform="translate(662.915 121.053) rotate(-90) scale(81.9226 83.2101)">
<stop stop-color="#121A1E"/>
<stop offset="0.49" stop-color="#8525EA"/>
<stop offset="1"/>
</radialGradient>
<radialGradient id="paint29_radial_343_153" cx="0" cy="0" r="1" gradientUnits="userSpaceOnUse" gradientTransform="translate(663.915 119.053) rotate(-90) scale(81.9226 83.2101)">
<stop stop-color="#121A1E"/>
<stop offset="0.49" stop-color="#8525EA"/>
<stop offset="1"/>
</radialGradient>
<radialGradient id="paint30_radial_343_153" cx="0" cy="0" r="1" gradientUnits="userSpaceOnUse" gradientTransform="translate(665.775 112.078) rotate(-90) scale(9.63935 97.2557)">
<stop stop-color="#BFEAFF"/>
<stop offset="0.43" stop-color="#6E8793"/>
<stop offset="1"/>
</radialGradient>
<radialGradient id="paint31_radial_343_153" cx="0" cy="0" r="1" gradientUnits="userSpaceOnUse" gradientTransform="translate(616.866 119.312) rotate(180) scale(9.79191 95.7614)">
<stop stop-color="#BFEAFF"/>
<stop offset="0.43" stop-color="#6E8793"/>
<stop offset="1"/>
</radialGradient>
<radialGradient id="paint32_radial_343_153" cx="0" cy="0" r="1" gradientUnits="userSpaceOnUse" gradientTransform="translate(390.915 191.053) rotate(-90) scale(81.9226 83.2101)">
<stop stop-color="#121A1E"/>
<stop offset="0.49" stop-color="#8525EA"/>
<stop offset="1"/>
</radialGradient>
<radialGradient id="paint33_radial_343_153" cx="0" cy="0" r="1" gradientUnits="userSpaceOnUse" gradientTransform="translate(391.915 189.053) rotate(-90) scale(81.9226 83.2101)">
<stop stop-color="#121A1E"/>
<stop offset="0.49" stop-color="#8525EA"/>
<stop offset="1"/>
</radialGradient>
<radialGradient id="paint34_radial_343_153" cx="0" cy="0" r="1" gradientUnits="userSpaceOnUse" gradientTransform="translate(393.775 182.078) rotate(-90) scale(9.63935 97.2557)">
<stop stop-color="#BFEAFF"/>
<stop offset="0.43" stop-color="#6E8793"/>
<stop offset="1"/>
</radialGradient>
<radialGradient id="paint35_radial_343_153" cx="0" cy="0" r="1" gradientUnits="userSpaceOnUse" gradientTransform="translate(344.866 189.312) rotate(180) scale(9.79191 95.7614)">
<stop stop-color="#BFEAFF"/>
<stop offset="0.43" stop-color="#6E8793"/>
<stop offset="1"/>
</radialGradient>
<radialGradient id="paint36_radial_343_153" cx="0" cy="0" r="1" gradientUnits="userSpaceOnUse" gradientTransform="translate(659.915 1174.05) rotate(-90) scale(81.9226 83.2101)">
<stop stop-color="#121A1E"/>
<stop offset="0.49" stop-color="#8525EA"/>
<stop offset="1"/>
</radialGradient>
<radialGradient id="paint37_radial_343_153" cx="0" cy="0" r="1" gradientUnits="userSpaceOnUse" gradientTransform="translate(660.915 1172.05) rotate(-90) scale(81.9226 83.2101)">
<stop stop-color="#121A1E"/>
<stop offset="0.49" stop-color="#8525EA"/>
<stop offset="1"/>
</radialGradient>
<radialGradient id="paint38_radial_343_153" cx="0" cy="0" r="1" gradientUnits="userSpaceOnUse" gradientTransform="translate(662.775 1165.08) rotate(-90) scale(9.63935 97.2557)">
<stop stop-color="#BFEAFF"/>
<stop offset="0.43" stop-color="#6E8793"/>
<stop offset="1"/>
</radialGradient>
<radialGradient id="paint39_radial_343_153" cx="0" cy="0" r="1" gradientUnits="userSpaceOnUse" gradientTransform="translate(613.866 1172.31) rotate(180) scale(9.79191 95.7614)">
<stop stop-color="#BFEAFF"/>
<stop offset="0.43" stop-color="#6E8793"/>
<stop offset="1"/>
</radialGradient>
<radialGradient id="paint40_radial_343_153" cx="0" cy="0" r="1" gradientUnits="userSpaceOnUse" gradientTransform="translate(1124.92 914.053) rotate(-90) scale(81.9226 83.2101)">
<stop stop-color="#121A1E"/>
<stop offset="0.49" stop-color="#8525EA"/>
<stop offset="1"/>
</radialGradient>
<radialGradient id="paint41_radial_343_153" cx="0" cy="0" r="1" gradientUnits="userSpaceOnUse" gradientTransform="translate(1125.92 912.053) rotate(-90) scale(81.9226 83.2101)">
<stop stop-color="#121A1E"/>
<stop offset="0.49" stop-color="#8525EA"/>
<stop offset="1"/>
</radialGradient>
<radialGradient id="paint42_radial_343_153" cx="0" cy="0" r="1" gradientUnits="userSpaceOnUse" gradientTransform="translate(1127.78 905.078) rotate(-90) scale(9.63935 97.2557)">
<stop stop-color="#BFEAFF"/>
<stop offset="0.43" stop-color="#6E8793"/>
<stop offset="1"/>
</radialGradient>
<radialGradient id="paint43_radial_343_153" cx="0" cy="0" r="1" gradientUnits="userSpaceOnUse" gradientTransform="translate(1078.87 912.312) rotate(180) scale(9.79191 95.7614)">
<stop stop-color="#BFEAFF"/>
<stop offset="0.43" stop-color="#6E8793"/>
<stop offset="1"/>
</radialGradient>
<radialGradient id="paint44_radial_343_153" cx="0" cy="0" r="1" gradientUnits="userSpaceOnUse" gradientTransform="translate(197.915 914.053) rotate(-90) scale(81.9226 83.2101)">
<stop stop-color="#121A1E"/>
<stop offset="0.49" stop-color="#8525EA"/>
<stop offset="1"/>
</radialGradient>
<radialGradient id="paint45_radial_343_153" cx="0" cy="0" r="1" gradientUnits="userSpaceOnUse" gradientTransform="translate(198.915 912.053) rotate(-90) scale(81.9226 83.2101)">
<stop stop-color="#121A1E"/>
<stop offset="0.49" stop-color="#8525EA"/>
<stop offset="1"/>
</radialGradient>
<radialGradient id="paint46_radial_343_153" cx="0" cy="0" r="1" gradientUnits="userSpaceOnUse" gradientTransform="translate(200.775 905.078) rotate(-90) scale(9.63935 97.2557)">
<stop stop-color="#BFEAFF"/>
<stop offset="0.43" stop-color="#6E8793"/>
<stop offset="1"/>
</radialGradient>
<radialGradient id="paint47_radial_343_153" cx="0" cy="0" r="1" gradientUnits="userSpaceOnUse" gradientTransform="translate(151.866 912.312) rotate(180) scale(9.79191 95.7614)">
<stop stop-color="#BFEAFF"/>
<stop offset="0.43" stop-color="#6E8793"/>
<stop offset="1"/>
</radialGradient>
<radialGradient id="paint48_radial_343_153" cx="0" cy="0" r="1" gradientUnits="userSpaceOnUse" gradientTransform="translate(197.915 383.053) rotate(-90) scale(81.9226 83.2101)">
<stop stop-color="#121A1E"/>
<stop offset="0.49" stop-color="#8525EA"/>
<stop offset="1"/>
</radialGradient>
<radialGradient id="paint49_radial_343_153" cx="0" cy="0" r="1" gradientUnits="userSpaceOnUse" gradientTransform="translate(198.915 381.053) rotate(-90) scale(81.9226 83.2101)">
<stop stop-color="#121A1E"/>
<stop offset="0.49" stop-color="#8525EA"/>
<stop offset="1"/>
</radialGradient>
<radialGradient id="paint50_radial_343_153" cx="0" cy="0" r="1" gradientUnits="userSpaceOnUse" gradientTransform="translate(200.775 374.078) rotate(-90) scale(9.63935 97.2557)">
<stop stop-color="#BFEAFF"/>
<stop offset="0.43" stop-color="#6E8793"/>
<stop offset="1"/>
</radialGradient>
<radialGradient id="paint51_radial_343_153" cx="0" cy="0" r="1" gradientUnits="userSpaceOnUse" gradientTransform="translate(126.915 647.053) rotate(-90) scale(81.9226 83.2101)">
<stop stop-color="#121A1E"/>
<stop offset="0.49" stop-color="#8525EA"/>
<stop offset="1"/>
</radialGradient>
<radialGradient id="paint52_radial_343_153" cx="0" cy="0" r="1" gradientUnits="userSpaceOnUse" gradientTransform="translate(127.915 645.053) rotate(-90) scale(81.9226 83.2101)">
<stop stop-color="#121A1E"/>
<stop offset="0.49" stop-color="#8525EA"/>
<stop offset="1"/>
</radialGradient>
<radialGradient id="paint53_radial_343_153" cx="0" cy="0" r="1" gradientUnits="userSpaceOnUse" gradientTransform="translate(129.775 638.078) rotate(-90) scale(9.63935 97.2557)">
<stop stop-color="#BFEAFF"/>
<stop offset="0.43" stop-color="#6E8793"/>
<stop offset="1"/>
</radialGradient>
<radialGradient id="paint54_radial_343_153" cx="0" cy="0" r="1" gradientUnits="userSpaceOnUse" gradientTransform="translate(393.915 1104.05) rotate(-90) scale(81.9226 83.2101)">
<stop stop-color="#121A1E"/>
<stop offset="0.49" stop-color="#8525EA"/>
<stop offset="1"/>
</radialGradient>
<radialGradient id="paint55_radial_343_153" cx="0" cy="0" r="1" gradientUnits="userSpaceOnUse" gradientTransform="translate(394.915 1102.05) rotate(-90) scale(81.9226 83.2101)">
<stop stop-color="#121A1E"/>
<stop offset="0.49" stop-color="#8525EA"/>
<stop offset="1"/>
</radialGradient>
<radialGradient id="paint56_radial_343_153" cx="0" cy="0" r="1" gradientUnits="userSpaceOnUse" gradientTransform="translate(396.775 1095.08) rotate(-90) scale(9.63935 97.2557)">
<stop stop-color="#BFEAFF"/>
<stop offset="0.43" stop-color="#6E8793"/>
<stop offset="1"/>
</radialGradient>
<radialGradient id="paint57_radial_343_153" cx="0" cy="0" r="1" gradientUnits="userSpaceOnUse" gradientTransform="translate(927.915 1104.05) rotate(-90) scale(81.9226 83.2101)">
<stop stop-color="#121A1E"/>
<stop offset="0.49" stop-color="#8525EA"/>
<stop offset="1"/>
</radialGradient>
<radialGradient id="paint58_radial_343_153" cx="0" cy="0" r="1" gradientUnits="userSpaceOnUse" gradientTransform="translate(928.915 1102.05) rotate(-90) scale(81.9226 83.2101)">
<stop stop-color="#121A1E"/>
<stop offset="0.49" stop-color="#8525EA"/>
<stop offset="1"/>
</radialGradient>
<radialGradient id="paint59_radial_343_153" cx="0" cy="0" r="1" gradientUnits="userSpaceOnUse" gradientTransform="translate(930.775 1095.08) rotate(-90) scale(9.63935 97.2557)">
<stop stop-color="#BFEAFF"/>
<stop offset="0.43" stop-color="#6E8793"/>
<stop offset="1"/>
</radialGradient>
<radialGradient id="paint60_radial_343_153" cx="0" cy="0" r="1" gradientUnits="userSpaceOnUse" gradientTransform="translate(151.866 381.312) rotate(180) scale(9.79191 95.7614)">
<stop stop-color="#BFEAFF"/>
<stop offset="0.43" stop-color="#6E8793"/>
<stop offset="1"/>
</radialGradient>
<radialGradient id="paint61_radial_343_153" cx="0" cy="0" r="1" gradientUnits="userSpaceOnUse" gradientTransform="translate(1125.92 384.053) rotate(-90) scale(81.9226 83.2101)">
<stop stop-color="#121A1E"/>
<stop offset="0.49" stop-color="#8525EA"/>
<stop offset="1"/>
</radialGradient>
<radialGradient id="paint62_radial_343_153" cx="0" cy="0" r="1" gradientUnits="userSpaceOnUse" gradientTransform="translate(1126.92 382.053) rotate(-90) scale(81.9226 83.2101)">
<stop stop-color="#121A1E"/>
<stop offset="0.49" stop-color="#8525EA"/>
<stop offset="1"/>
</radialGradient>
<radialGradient id="paint63_radial_343_153" cx="0" cy="0" r="1" gradientUnits="userSpaceOnUse" gradientTransform="translate(1128.78 375.078) rotate(-90) scale(9.63935 97.2557)">
<stop stop-color="#BFEAFF"/>
<stop offset="0.43" stop-color="#6E8793"/>
<stop offset="1"/>
</radialGradient>
<radialGradient id="paint64_radial_343_153" cx="0" cy="0" r="1" gradientUnits="userSpaceOnUse" gradientTransform="translate(1079.87 382.312) rotate(180) scale(9.79191 95.7614)">
<stop stop-color="#BFEAFF"/>
<stop offset="0.43" stop-color="#6E8793"/>
<stop offset="1"/>
</radialGradient>
<radialGradient id="paint65_radial_343_153" cx="0" cy="0" r="1" gradientUnits="userSpaceOnUse" gradientTransform="translate(1196.92 648.053) rotate(-90) scale(81.9226 83.2101)">
<stop stop-color="#121A1E"/>
<stop offset="0.49" stop-color="#8525EA"/>
<stop offset="1"/>
</radialGradient>
<radialGradient id="paint66_radial_343_153" cx="0" cy="0" r="1" gradientUnits="userSpaceOnUse" gradientTransform="translate(1197.92 646.053) rotate(-90) scale(81.9226 83.2101)">
<stop stop-color="#121A1E"/>
<stop offset="0.49" stop-color="#8525EA"/>
<stop offset="1"/>
</radialGradient>
</defs>
</svg>
