<svg width="37" height="38" viewBox="0 0 37 38" fill="none" xmlns="http://www.w3.org/2000/svg">
<path fill-rule="evenodd" clip-rule="evenodd" d="M18.5 0H36.9496H37L36.9496 0.0285959V27.5811L18.4998 38L0.0764471 27.5811V0.0434676L0 0H0.0764471H18.5Z" fill="url(#paint0_linear_223_184)"/>
<path d="M24 10.4134C24 7.42374 21.5376 5 18.5 5C15.4624 5 13 7.42374 13 10.4134C13 12.1959 13.879 13.7721 15.2292 14.7586L13.4789 27H23.5212L21.7708 14.7586C23.121 13.7721 24 12.1959 24 10.4134V10.4134Z" fill="#FEFEFE"/>
<path fill-rule="evenodd" clip-rule="evenodd" d="M19.8035 10.4921C19.8388 10.0148 19.8891 10.007 19.7986 9.48431C20.0082 9.55 20.3605 9.82471 20.477 9.97681C20.3857 10.1618 19.9527 10.4227 19.8035 10.4921ZM18.5 9.07784C18.949 9.07784 19.3129 9.4907 19.3129 9.99998C19.3129 10.5093 18.949 10.922 18.5 10.922C18.0511 10.922 17.6871 10.5093 17.6871 9.99998C17.6871 9.4907 18.0511 9.07784 18.5 9.07784ZM20.8006 8.43601C21.4251 8.89567 21.8093 9.33504 22.1922 10.0073C22.2795 10.1606 22.4868 10.55 22.5389 10.7112C22.6776 10.6201 22.9058 10.3461 23 10.2323C22.9346 9.84972 22.3432 9.03308 22.1589 8.79279C20.6365 6.80675 17.8309 6.45852 15.8912 7.80944C15.5467 8.04934 14.8642 8.65116 14.716 8.96655L15.969 10.399C16.355 10.8471 16.9626 11.2259 17.6205 11.4159C18.3037 11.578 18.9045 11.5759 19.5523 11.3595C20.4035 11.075 20.7624 10.5809 20.9843 10.496C21.0747 10.6257 21.3446 10.871 21.3922 11.0273C21.1842 11.2905 20.6475 11.6687 20.3033 11.8433C18.9358 12.5368 17.3278 12.3945 16.0754 11.4522C15.7269 11.1899 15.3781 10.835 15.1364 10.4953C14.9609 10.2487 14.5542 9.59054 14.4629 9.27311C14.3231 9.34163 14.0683 9.64437 14 9.77469C14.136 10.1787 14.6324 10.948 14.847 11.1874C15.5935 12.0198 16.3539 12.6113 17.482 12.8767C19.0229 13.2392 20.4971 12.7929 21.7101 11.6627C21.825 11.5555 22.2002 11.16 22.2728 11.0274C22.215 10.8564 21.6077 10.2212 21.4501 10.0414C20.5427 9.00643 19.539 8.19887 17.9723 8.48194C17.5853 8.52505 17.2073 8.67636 16.9059 8.83662C16.5398 9.03137 16.3264 9.26996 16.0564 9.46398C15.9428 9.40521 15.6267 9.04894 15.6052 8.92607C16.0634 8.45489 16.5603 8.14214 17.1623 7.91896C18.4088 7.51144 19.6746 7.607 20.8006 8.43601ZM17.1886 10.4663C17.0135 10.4376 16.5852 10.1219 16.5162 9.97675C16.6725 9.77812 16.9529 9.60251 17.1814 9.47305C17.1836 9.6243 17.1372 9.74159 17.1328 9.93515C17.1282 10.1398 17.1615 10.2939 17.1886 10.4663Z" fill="#7637BF"/>
<defs>
<linearGradient id="paint0_linear_223_184" x1="18.5" y1="0" x2="18.5" y2="38" gradientUnits="userSpaceOnUse">
<stop stop-color="#9949EE"/>
<stop offset="1" stop-color="#9949EE" stop-opacity="0"/>
</linearGradient>
</defs>
</svg>
