<svg width="87" height="73" viewBox="0 0 87 73" fill="none" xmlns="http://www.w3.org/2000/svg">
<path opacity="0.43" d="M51.2916 50.23L48.1738 46.6524C50.9819 44.4615 52.6369 41.2128 52.6369 37.7031C52.6369 34.205 50.9927 30.9659 48.2004 28.7748L51.3288 25.2055C55.2321 28.2684 57.5377 32.8101 57.5377 37.7031C57.5377 42.6123 55.2169 47.1673 51.2916 50.23ZM57.5894 57.3368L54.4596 53.7685C59.4801 49.826 62.4383 43.9957 62.4383 37.7031C62.4383 31.4194 59.4882 25.5963 54.4797 21.6536L57.614 18.0889C63.7301 22.9034 67.3389 30.0269 67.3389 37.7031C67.3389 45.3899 63.7199 52.5223 57.5894 57.3368ZM34.3799 50.23C30.4547 47.1673 28.1339 42.6123 28.1339 37.7031C28.1339 32.8101 30.4393 28.2684 34.3427 25.2055L37.4711 28.7748C34.6788 30.9659 33.0344 34.205 33.0344 37.7031C33.0344 41.2128 34.6897 44.4615 37.4978 46.6524L34.3799 50.23ZM28.0821 57.3368C21.9514 52.5223 18.3325 45.3899 18.3325 37.7031C18.3325 30.0269 21.9414 22.9034 28.0576 18.0889L31.1917 21.6536C26.1832 25.5963 23.2331 31.4194 23.2331 37.7031C23.2331 43.9957 26.1915 49.826 31.2119 53.7685L28.0821 57.3368Z" fill="white" fill-opacity="0.3"/>
<path d="M47.5665 44.1262L45.8277 42.2739C47.3937 41.1396 48.3167 39.4577 48.3167 37.6406C48.3167 35.8296 47.3998 34.1525 45.8425 33.0181L47.5872 31.1702C49.764 32.756 51.0498 35.1074 51.0498 37.6406C51.0498 40.1823 49.7555 42.5405 47.5665 44.1262ZM51.0787 47.8056L49.3332 45.9582C52.1331 43.917 53.7829 40.8985 53.7829 37.6406C53.7829 34.3873 52.1376 31.3726 49.3444 29.3313L51.0924 27.4857C54.5033 29.9784 56.5159 33.6664 56.5159 37.6406C56.5159 41.6203 54.4976 45.313 51.0787 47.8056ZM38.1349 44.1262C35.9459 42.5405 34.6516 40.1823 34.6516 37.6406C34.6516 35.1074 35.9373 32.756 38.1142 31.1702L39.8589 33.0181C38.3016 34.1525 37.3846 35.8296 37.3846 37.6406C37.3846 39.4577 38.3077 41.1396 39.8737 42.2739L38.1349 44.1262ZM34.6227 47.8056C31.2037 45.313 29.1854 41.6203 29.1854 37.6406C29.1854 33.6664 31.1981 29.9784 34.609 27.4857L36.3569 29.3313C33.5637 31.3726 31.9184 34.3873 31.9184 37.6406C31.9184 40.8985 33.5683 43.917 36.3682 45.9582L34.6227 47.8056Z" fill="#A54FFF"/>
<path opacity="0.45" d="M42.8507 40.0414C44.3601 40.0414 45.5838 38.9665 45.5838 37.6406C45.5838 36.3147 44.3601 35.2399 42.8507 35.2399C41.3413 35.2399 40.1177 36.3147 40.1177 37.6406C40.1177 38.9665 41.3413 40.0414 42.8507 40.0414Z" fill="#A54FFF"/>
<path opacity="0.45" d="M42.8359 42.3403C45.5424 42.3403 47.7366 40.2641 47.7366 37.7031C47.7366 35.1422 45.5424 33.0661 42.8359 33.0661C40.1294 33.0661 37.9353 35.1422 37.9353 37.7031C37.9353 40.2641 40.1294 42.3403 42.8359 42.3403Z" fill="white" fill-opacity="0.24"/>
</svg>
